<svg width="32" height="32" viewBox="0 0 32 32" fill="none" xmlns="http://www.w3.org/2000/svg">
<path d="M10.6667 21.3333L14.5053 17.4947M14.5053 17.4947C14.8756 17.8711 15.3168 18.1705 15.8033 18.3756C16.2899 18.5807 16.8122 18.6875 17.3403 18.6897C17.8683 18.6919 18.3915 18.5895 18.8798 18.3885C19.3681 18.1875 19.8117 17.8918 20.1851 17.5185C20.5585 17.1451 20.8543 16.7016 21.0555 16.2133C21.2566 15.7251 21.3591 15.2019 21.357 14.6739C21.3549 14.1459 21.2483 13.6235 21.0433 13.1369C20.8383 12.6502 20.539 12.209 20.1627 11.8387C19.4105 11.0985 18.3964 10.6856 17.3412 10.6897C16.286 10.6939 15.2752 11.1149 14.5289 11.8609C13.7827 12.607 13.3615 13.6177 13.3571 14.6729C13.3526 15.7282 13.7654 16.7424 14.5053 17.4947ZM28 16C28 17.5759 27.6896 19.1363 27.0866 20.5922C26.4835 22.0481 25.5996 23.371 24.4853 24.4853C23.371 25.5996 22.0481 26.4835 20.5922 27.0866C19.1363 27.6896 17.5759 28 16 28C14.4241 28 12.8637 27.6896 11.4078 27.0866C9.95189 26.4835 8.62902 25.5996 7.51472 24.4853C6.40042 23.371 5.5165 22.0481 4.91345 20.5922C4.31039 19.1363 4 17.5759 4 16C4 12.8174 5.26428 9.76516 7.51472 7.51472C9.76516 5.26428 12.8174 4 16 4C19.1826 4 22.2348 5.26428 24.4853 7.51472C26.7357 9.76516 28 12.8174 28 16Z" stroke="#3B82F6" stroke-width="3" stroke-linecap="round" stroke-linejoin="round"/>
</svg>
